<svg width="20" height="19" viewBox="0 0 20 19" fill="none" xmlns="http://www.w3.org/2000/svg">
<g id="Logo Linkedin">
<path id="Fill 1" fill-rule="evenodd" clip-rule="evenodd" d="M16.6628 15.477H13.8191V11.3406C13.8191 10.3543 13.7996 9.08553 12.3403 9.08553C10.8597 9.08553 10.6324 10.16 10.6324 11.2693V15.477H7.78912V6.9713H10.5184V8.1335H10.5565C10.9365 7.4649 11.8648 6.75991 13.2492 6.75991C16.1308 6.75991 16.6628 8.52164 16.6628 10.8116V15.477ZM4.58204 5.8088C3.66992 5.8088 2.93179 5.122 2.93179 4.27579C2.93179 3.43032 3.66992 2.74352 4.58204 2.74352C5.4919 2.74352 6.23123 3.43032 6.23123 4.27579C6.23123 5.122 5.4919 5.8088 4.58204 5.8088ZM3.15811 15.4771H6.00401V6.97142H3.15811V15.4771ZM18.0797 0.289551H1.72963C0.948341 0.289551 0.313477 0.86483 0.313477 1.57378V16.8264C0.313477 17.5362 0.948341 18.1123 1.72963 18.1123H18.0797C18.8623 18.1123 19.4999 17.5362 19.4999 16.8264V1.57378C19.4999 0.86483 18.8623 0.289551 18.0797 0.289551Z" fill="#F2994A"/>
</g>
</svg>
