<svg width="20" height="19" viewBox="0 0 20 19" fill="none" xmlns="http://www.w3.org/2000/svg">
<g id="dribbble-ball-mark">
<path id="Shape" fill-rule="evenodd" clip-rule="evenodd" d="M9.60711 0.289551C4.31109 0.289551 0.013916 4.28132 0.013916 9.20094C0.013916 14.1206 4.31109 18.1123 9.60711 18.1123C14.8927 18.1123 19.2003 14.1206 19.2003 9.20094C19.2003 4.28132 14.8927 0.289551 9.60711 0.289551ZM15.9431 4.39733C17.0876 5.69247 17.7744 7.34525 17.7952 9.13332C17.5246 9.08499 14.8194 8.57274 12.0934 8.89168C12.0309 8.76605 11.9789 8.63072 11.9165 8.49541C11.75 8.12814 11.5627 7.75118 11.3754 7.39357C14.3928 6.25307 15.7662 4.60997 15.9431 4.39733ZM9.60642 1.60408C11.6874 1.60408 13.5915 2.32897 15.0377 3.51781C14.892 3.71111 13.6539 5.2479 10.7405 6.26275C9.39833 3.97207 7.91044 2.09701 7.68155 1.80705C8.29542 1.67174 8.94052 1.60408 9.60642 1.60408ZM6.12117 2.31923C6.33966 2.58985 7.79633 4.47459 9.15935 6.71693C5.3304 7.66412 1.94886 7.6448 1.58469 7.6448C2.11532 5.28647 3.83212 3.32442 6.12117 2.31923ZM1.40781 9.21076C1.40781 9.13344 1.40781 9.05613 1.40781 8.97879C1.76157 8.98845 5.73619 9.03679 9.82525 7.89629C10.0646 8.32156 10.2831 8.75649 10.4912 9.19144C10.3871 9.22043 10.2727 9.24943 10.1686 9.27841C5.94429 10.5446 3.69685 14.0047 3.50958 14.2947C2.20897 12.9512 1.40781 11.1632 1.40781 9.21076ZM9.60671 16.8173C7.71306 16.8173 5.96504 16.2181 4.58121 15.2129C4.72689 14.9326 6.39165 11.9557 11.0113 10.4576C11.0322 10.4479 11.0426 10.4479 11.0634 10.4382C12.2183 13.2122 12.6865 15.5415 12.8114 16.2084C11.8229 16.6047 10.7408 16.8173 9.60671 16.8173ZM14.1748 15.5125C14.0915 15.0485 13.6545 12.8255 12.5828 10.0902C15.1528 9.71328 17.4002 10.3319 17.6811 10.4188C17.3274 12.5355 16.0164 14.3623 14.1748 15.5125Z" fill="#F2994A"/>
</g>
</svg>
